<svg xmlns="http://www.w3.org/2000/svg" viewBox="0 0 1358 238.33"><defs><style>.cls-1{fill:#ff7bac;}.cls-2{fill:#f2f2f2;}.cls-3{fill:none;stroke:#f2f2f2;stroke-miterlimit:10;stroke-width:27px;}.cls-4{fill:#f4f4f4;}</style></defs><g id="Camada_2" data-name="Camada 2"><g id="LETRAS"><path id="PLAY" class="cls-1" d="M408.38,75.67l-51.5-29.73a2.75,2.75,0,0,0-4.12,2.38v59.46a2.75,2.75,0,0,0,4.12,2.39l51.5-29.73A2.76,2.76,0,0,0,408.38,75.67Z"/><path id="B" class="cls-2" d="M100,74.33c11.08-8.56,17.6-21.1,17-33.28-.8-16.49-14.66-32.77-31-37a36.77,36.77,0,0,0-12-1H2.39A2.4,2.4,0,0,0,0,5.45V23.66a2.39,2.39,0,0,0,2.39,2.39H71c12-.16,21.57,7.89,23,17,1.75,11.16-8.74,24.19-24,24H24v-25a2,2,0,0,0-2-2H3a2,2,0,0,0-2,2v108H74V150c26.4,1.08,47.67-14.83,51-32.17C127.84,103,118.06,84.4,100,74.33ZM74,128.05H24v-43H70v0c1.42,0,2.81-.16,4.18-.31,17-.2,29.06,12.13,28.82,22.18C102.77,116.68,90.77,128.13,74,128.05Z"/><path id="R" class="cls-2" d="M254,151.05h28.64L241.43,97.51c22.28-6.87,37.51-28.29,35.57-50.46-2.11-24.12-24.14-44.35-51-44H154a3,3,0,0,0-3,3v144h25v-50h36.56Zm-78-125h50c12.92,0,23.84,9.16,26,21,2.43,13.29-6.7,27-21,30H176Z"/><ellipse id="O" class="cls-3" cx="375.5" cy="77.55" rx="66" ry="64"/><polygon id="A" class="cls-2" points="552 3.05 528.86 3.05 459.86 151.05 485.57 151.05 540.64 30.34 568 96.05 522 96.05 514 118.05 580 118.05 594 151.05 621.43 151.05 552 3.05"/><path id="D" class="cls-2" d="M706,3.18V3.05H642a2,2,0,0,0-2,2v144a2,2,0,0,0,2,2h64c39.56-2.29,70.52-34.91,71-73C777.49,39.13,746,5.5,706,3.18Zm-6,125.87H664v-103h38c28.35.41,51.27,24,51,52C752.73,106.48,728.73,129.75,700,129.05Z"/><path id="C" class="cls-2" d="M920.7,111.1a55.37,55.37,0,0,1-42.77,20c-30.34,0-54.93-24-54.93-53.5s24.59-53.5,54.93-53.5c16.53,0,28,3.74,38.07,15,.15.17,3.64,3.71,3.78,3.88L936,26.05C921,10.61,902.91,0,879,0c-45.29,0-82,34.72-82,77.55s36.71,77.56,82,77.56c24.73,0,42.69-10.86,57.43-27.27a2.35,2.35,0,0,0-.23-3.34Z"/><polygon id="A2" class="cls-2" points="1036.43 3.12 1013.29 3.12 944.29 151.13 970 151.13 1025.07 30.41 1052.43 96.13 1006.43 96.13 998.43 118.13 1064.43 118.13 1078.43 151.13 1105.86 151.13 1036.43 3.12"/><path id="T" class="cls-2" d="M1211.71,3.05H1097.29A2.29,2.29,0,0,0,1095,5.34V22.77a2.28,2.28,0,0,0,2.29,2.28H1144V147.41a1.64,1.64,0,0,0,1.64,1.64h18.72a1.64,1.64,0,0,0,1.64-1.64V25.05h34l22-22C1222,1.79,1213,3.05,1211.71,3.05Z"/><path id="Z" class="cls-2" d="M1221.29,24.75l-.25.3h86.71l-100.61,124-1.71,2.08h29.14l49.43-.08-32,43,88-62h-89.48L1328.37,39l11.51-13.92h.12V24.9c12.42-15,18-21.85,18-21.85H1249"/><path class="cls-4" d="M572.27,177.8c-3.6-1.05-7.13-2.1-10.95-2.1-8.1,0-11,4.43-11,8a9.33,9.33,0,0,0,2,5.25c2,2.55,5.93,5.78,11.63,10.5,1.27,1,2.55,2.1,3.75,3.23,4.87,4.57,5.92,8.32,5.92,11.4a11.12,11.12,0,0,1-3.9,8.62c-2,1.8-5.32,3.68-11.55,3.68a37.09,37.09,0,0,1-4.35-.3c-3-.38-5.17-1-10.5-3.38l-.22-5.47,1.35.9a25.51,25.51,0,0,0,13.65,4.12c5,0,10.57-2.25,10.57-8a8.65,8.65,0,0,0-1.65-4.88c-1.57-2.25-5.47-5.77-10.8-10.12-1.72-1.43-3.52-2.78-5.17-4.35-1.13-1.05-5.78-5.48-5.78-11.18a10.76,10.76,0,0,1,1.58-5.62c3.75-6.38,11.7-6.38,13.65-6.38,3,0,5.55.38,11.32,1.5Z"/><path class="cls-4" d="M585.54,190a18.18,18.18,0,0,1,6.9-3.75,19.1,19.1,0,0,1,6.08-.83c5.1,0,10,1.28,13.65,5,2.17,2.25,4.57,6.07,4.57,13.42A29.84,29.84,0,0,1,615,214.25c-1.5,4.05-5.7,11.93-17.25,11.93-1.58,0-8.1-.08-12.68-3.6a15,15,0,0,1-3.52-4.13c-1.35-2.25-2.7-5.55-2.63-11.47C579,197.45,582.47,192.8,585.54,190Zm-.9,24.45A13.19,13.19,0,0,0,597.39,223a14,14,0,0,0,12.9-8.47,24,24,0,0,0,1.58-8.1c.07-1,.15-2.18.15-3.3a19.82,19.82,0,0,0-1-6.83c-1.13-2.85-4.2-7.5-12.15-7.5-4.5,0-8.1,1.35-11,4.65-2.25,2.55-4.2,6.38-4.2,13.88A21,21,0,0,0,584.64,214.48Z"/><path class="cls-4" d="M629.57,172.7c-.83,8.33-1.5,16.73-2,25.2-.45,9.08-.68,18.23-.9,27.38h-5.33c.45-4,.9-8,1.2-12,.45-6,.68-11.93,1-17.93.3-5.4.67-10.72.67-16.12,0-2.18-.07-4.35-.15-6.6Z"/><path class="cls-4" d="M641.12,186.28c-1,7.57-1.28,12.22-1.5,26.47a15.44,15.44,0,0,0,.82,4.5c2,5.33,7.65,5.63,9.38,5.63,8.85,0,12.52-7.95,13.42-10.35a26.25,26.25,0,0,0,.9-3.83c.38-3.22.67-6.37.83-9.6.22-4.27.3-8.62.3-12.9l5.25.08c-.53,6.07-1,12.22-1.43,18.3-.37,6.9-.53,13.87-.75,20.77h-4.65l-.08-6.6c-.67.83-1.49,1.8-2.24,2.55a17.86,17.86,0,0,1-12.75,4.88c-1.5,0-9.38-.08-12.38-6.15-.82-1.5-1.12-2.93-1.5-6.45.08-2.63.08-5.25.23-7.8.22-3.45.45-6.83.6-10.2.07-3.08.07-6.23.15-9.3Z"/><path class="cls-4" d="M705.69,191.45c-5.4-2-7.65-2.47-10.65-2.47a13.79,13.79,0,0,0-10.73,4.57c-3.3,3.75-3.82,8.48-3.82,13.43a41.77,41.77,0,0,0,.22,4.5c.6,4,2.1,6.9,5.48,9a14.82,14.82,0,0,0,8.1,2.17c2.92,0,5.1-.45,10.42-2l-.9,4.57a57.92,57.92,0,0,1-9.3,1.05c-1.57,0-8.1-.07-12.67-3.75a15.32,15.32,0,0,1-3.38-4A22,22,0,0,1,675.61,207a27.26,27.26,0,0,1,1.28-8.4c1.35-4.2,5.62-13.28,18.22-13.28,2.85,0,5,.3,10.35,1.58Zm-11.93,37.13-4.65,9.75h-7.65l9-9.75Z"/><path class="cls-4" d="M715.14,190a18.09,18.09,0,0,1,6.9-3.75,19,19,0,0,1,6.07-.83c5.1,0,10,1.28,13.65,5,2.18,2.25,4.58,6.07,4.58,13.42a29.92,29.92,0,0,1-1.73,10.35c-1.5,4.05-5.7,11.93-17.25,11.93-1.57,0-8.09-.08-12.67-3.6a15,15,0,0,1-3.52-4.13c-1.36-2.25-2.7-5.55-2.63-11.47C708.62,197.45,712.06,192.8,715.14,190Zm-.9,24.45A13.19,13.19,0,0,0,727,223a14,14,0,0,0,12.9-8.47,24,24,0,0,0,1.57-8.1c.08-1,.15-2.18.15-3.3a19.82,19.82,0,0,0-1.05-6.83c-1.12-2.85-4.2-7.5-12.15-7.5-4.5,0-8.1,1.35-10.94,4.65-2.25,2.55-4.2,6.38-4.2,13.88A21,21,0,0,0,714.24,214.48Zm26.32-42c-.37,2.4-.75,5-2.7,6.75a4.65,4.65,0,0,1-3.45,1.42c-1.8-.07-3.37-.67-6.37-2.62-2.1-1.35-3.08-2.1-4.2-2.1a2.42,2.42,0,0,0-1.43.37c-1.12.83-1.27,2.25-1.42,3.75h-3.6c.15-2.32.38-4.65,2-6.6a4.43,4.43,0,0,1,3.75-1.8c1.87,0,3.67.68,6.82,2.7,2,1.35,2.78,2.1,4,2.1a2.7,2.7,0,0,0,1.5-.52c.9-.6,1.12-1.28,1.42-3.45Z"/><path class="cls-4" d="M755.49,203.23c-.23,5.1-.38,9.45,2.4,13.8,1.5,2.32,4.5,5.62,11.55,5.62,4,0,7.72-1.27,11.4-2.47l-.6,4.57a55.71,55.71,0,0,1-11.18,1.5c-1.72,0-7.8-.15-12.22-3.75a16.66,16.66,0,0,1-4.05-5.32,22.76,22.76,0,0,1-2.25-10.58,28.88,28.88,0,0,1,.52-5.77c1-4.58,3.38-9.53,7.13-12.38a17.93,17.93,0,0,1,11.1-3.37c1.2,0,5.77.07,9.22,2.25a13.68,13.68,0,0,1,3.68,3.82,15.55,15.55,0,0,1,2,5.1,36.4,36.4,0,0,1,.45,7Zm24.67-3.3a27.77,27.77,0,0,0-1.12-5.4c-.9-2.33-3.3-6.3-9.75-6.3a13.11,13.11,0,0,0-11.55,7.05,18.82,18.82,0,0,0-1.8,4.65Z"/><path class="cls-4" d="M810.24,191a30.73,30.73,0,0,0-9.45-2c-.38,0-4.13,0-6,1.42a4.1,4.1,0,0,0-1.35,1.88,5.46,5.46,0,0,0-.3,1.95c0,2.62,1.65,4.05,3.6,5.7l7.8,6.15a30.71,30.71,0,0,1,4.2,4,10.85,10.85,0,0,1,2.47,6.6,8.62,8.62,0,0,1-3.67,7c-2.85,2.25-6.23,2.55-9.75,2.55s-5.4-.15-10.95-1.73l-.53-4.27a53,53,0,0,0,6.83,2.1,33,33,0,0,0,5.25.6c4.12,0,8.17-1.65,8.1-6.08,0-2.55-1.65-4.2-3.53-5.92L795.39,205a38.21,38.21,0,0,1-4-3.6,10.91,10.91,0,0,1-3-7.12,7.41,7.41,0,0,1,3.3-6.23,15.37,15.37,0,0,1,9.08-2.55,45.47,45.47,0,0,1,8.77,1.13Z"/><path class="cls-4" d="M869.49,172.63c1.2,4,2.4,8,3.75,12,1.72,5,3.6,9.9,5.47,14.92,1.95,5.48,3.83,10.95,5.85,16.35,1.2,3.23,2.48,6.45,3.75,9.6h-5.85c-1.72-5.55-3.45-11-5.4-16.5-.9-2.7-1.95-5.4-2.92-8.1H853.89c-1.43,3-2.85,6-4.43,9-1.27,2.4-2.55,4.73-3.67,7.2-1.35,2.7-2.4,5.55-3.53,8.33h-5.4c3.68-7.35,7.43-14.78,11-22.13,3.3-6.82,6.75-13.8,10.2-20.55,1-2,2.1-4,3-6,.67-1.35,1.2-2.77,1.8-4.2Zm-13.8,24.22h17.1l-7.13-20.17Z"/><path class="cls-4" d="M898.89,186.28c-1,7.57-1.28,12.22-1.5,26.47a15.44,15.44,0,0,0,.82,4.5c2,5.33,7.65,5.63,9.38,5.63,8.85,0,12.52-7.95,13.42-10.35a26.25,26.25,0,0,0,.9-3.83c.38-3.22.68-6.37.83-9.6.22-4.27.3-8.62.3-12.9l5.25.08c-.53,6.07-1,12.22-1.43,18.3-.37,6.9-.52,13.87-.75,20.77h-4.65l-.07-6.6c-.68.83-1.5,1.8-2.25,2.55a17.86,17.86,0,0,1-12.75,4.88c-1.5,0-9.38-.08-12.38-6.15-.82-1.5-1.12-2.93-1.5-6.45.08-2.63.08-5.25.23-7.8.22-3.45.45-6.83.6-10.2.07-3.08.07-6.23.15-9.3Z"/><path class="cls-4" d="M965.71,172.7h5.63c-.38,2.48-.6,5-.83,7.43-.22,4.05-.37,8-.52,12.07-.38,7.05-.75,14.18-1,21.3-.07,4-.07,7.95-.07,11.93h-4.73V219.2a18.62,18.62,0,0,1-1.5,2c-1.8,2-6.07,5-12.9,5-1.72,0-6.9-.15-10.8-3.38-5.4-4.35-5.7-12.07-5.7-14a26.87,26.87,0,0,1,2-10.05,20.62,20.62,0,0,1,6-8.48A24.82,24.82,0,0,1,956,185.38a53.66,53.66,0,0,1,9.75,1.35Zm-9.6,15.9c-7.35,0-13.65,3.75-16.42,10.8a31,31,0,0,0-1.58,10c0,4.65,1.2,7,2.4,8.63a12.43,12.43,0,0,0,10.2,5,13.2,13.2,0,0,0,11.93-6.9c.82-1.42,1.12-2.62,1.8-5.85.3-3,.67-6.07.82-9.15.15-3.67.15-7.35.23-11C960.61,188.9,958.74,188.6,956.11,188.6Z"/><path class="cls-4" d="M983.41,186.28c-.52,6.9-1,13.72-1.35,20.7-.3,6.07-.37,12.22-.52,18.3h-5.25c.37-2.4.67-4.73.82-7.13.38-4.5.53-9,.68-13.57.07-1.35.15-2.7.15-4.05.22-4.73.37-9.53.52-14.33Zm.83-13.58-.3,5.18h-5V172.7Z"/><path class="cls-4" d="M994.81,190a18.18,18.18,0,0,1,6.9-3.75,19.1,19.1,0,0,1,6.08-.83c5.1,0,10,1.28,13.65,5,2.17,2.25,4.57,6.07,4.57,13.42a29.84,29.84,0,0,1-1.72,10.35c-1.5,4.05-5.7,11.93-17.25,11.93-1.58,0-8.1-.08-12.68-3.6a15,15,0,0,1-3.52-4.13c-1.35-2.25-2.7-5.55-2.63-11.47C988.29,197.45,991.74,192.8,994.81,190Zm-.9,24.45a13.19,13.19,0,0,0,12.75,8.47,14,14,0,0,0,12.9-8.47,24,24,0,0,0,1.58-8.1c.07-1,.15-2.18.15-3.3a19.82,19.82,0,0,0-1-6.83c-1.13-2.85-4.2-7.5-12.15-7.5-4.5,0-8.1,1.35-11,4.65-2.25,2.55-4.2,6.38-4.2,13.88A21,21,0,0,0,993.91,214.48Z"/><path class="cls-4" d="M1066.58,186.28c-1.87,3.67-3.82,7.5-5.62,11.32-1.35,3.08-2.55,5.85-3.9,8.93s-2.85,6.07-4.2,9.15-2.85,6.45-4.2,9.67h-6.82c-1-3.45-1.95-6.9-3.15-10.27s-2.48-6.53-3.68-9.9c-1-2.78-2-5.7-3.07-8.48-1.28-3.52-2.78-7-4.2-10.42h5.55q1.45,4.83,3.15,9.45c1.35,3.9,2.77,7.8,4.2,11.62,1.72,4.73,3.37,9.38,5,14,2.55-5.25,5-10.5,7.35-15.83,2.85-6.45,5.55-12.9,8.17-19.35Z"/><path class="cls-4" d="M1075.59,186.28c-.53,6.9-1,13.72-1.36,20.7-.3,6.07-.37,12.22-.52,18.3h-5.25c.38-2.4.68-4.73.83-7.13.37-4.5.52-9,.67-13.57.08-1.35.15-2.7.15-4.05.23-4.73.38-9.53.53-14.33Zm.82-13.58-.3,5.18h-5V172.7Z"/><path class="cls-4" d="M1102.43,191a30.65,30.65,0,0,0-9.45-2c-.37,0-4.12,0-6,1.42a4.1,4.1,0,0,0-1.34,1.88,5.46,5.46,0,0,0-.31,1.95c0,2.62,1.65,4.05,3.6,5.7l7.8,6.15a30.14,30.14,0,0,1,4.2,4,10.78,10.78,0,0,1,2.48,6.6,8.61,8.61,0,0,1-3.68,7c-2.85,2.25-6.22,2.55-9.75,2.55-3.37,0-5.4-.15-11-1.73l-.52-4.27a52.89,52.89,0,0,0,6.82,2.1,33.15,33.15,0,0,0,5.25.6c4.13,0,8.18-1.65,8.1-6.08,0-2.55-1.65-4.2-3.52-5.92l-7.58-5.93a37.37,37.37,0,0,1-4-3.6,10.86,10.86,0,0,1-3-7.12,7.38,7.38,0,0,1,3.3-6.23,15.34,15.34,0,0,1,9.07-2.55,45.55,45.55,0,0,1,8.78,1.13Z"/><path class="cls-4" d="M1116,186.28c-1,7.57-1.28,12.22-1.5,26.47a15.44,15.44,0,0,0,.82,4.5c2,5.33,7.65,5.63,9.38,5.63,8.85,0,12.52-7.95,13.42-10.35a26.25,26.25,0,0,0,.9-3.83c.38-3.22.68-6.37.83-9.6.22-4.27.3-8.62.3-12.9l5.25.08c-.53,6.07-1.05,12.22-1.43,18.3-.37,6.9-.52,13.87-.75,20.77h-4.65l-.07-6.6c-.68.83-1.5,1.8-2.25,2.55a17.86,17.86,0,0,1-12.75,4.88c-1.5,0-9.38-.08-12.37-6.15-.83-1.5-1.13-2.93-1.5-6.45.07-2.63.07-5.25.22-7.8.22-3.45.45-6.83.6-10.2.07-3.08.07-6.23.15-9.3Z"/><path class="cls-4" d="M1156.43,187.25l4-1a43.08,43.08,0,0,1,11.4-.6c3.37.45,6.45,1,8.7,3.82a8.22,8.22,0,0,1,1.5,2.78,12.4,12.4,0,0,1,.52,3.3c-.07,3.6-.22,7.12-.37,10.65s-.45,7.05-.6,10.57c-.15,2.85-.15,5.7-.23,8.55h-5.1c.45-3.67.9-7.35,1.13-11.1s.37-7.42.45-11.17a19.45,19.45,0,0,1-7.58,4l-9.37,2.85c-2.4,1-4.58,1.95-5.7,4.13a5.51,5.51,0,0,0-.68,2.62,5.83,5.83,0,0,0,.68,2.48c1,2,3.67,3.82,8.85,3.82,2.55,0,4.8-.37,9.67-1.65L1173,225a53.52,53.52,0,0,1-9.53,1.05c-1.27,0-7.8,0-11.55-4.13a7.66,7.66,0,0,1-2-5.32,7.81,7.81,0,0,1,1.2-4.28c2-3.3,5.55-4.72,9.22-6l6.38-1.8c1.87-.6,3.75-1.27,5.55-1.87,2.1-1,4.12-2.1,5.25-4.35a6.81,6.81,0,0,0,.75-2.93,6.69,6.69,0,0,0-.6-2.47c-2-4.28-8-4.2-8.85-4.2-4.5,0-8.78,1.42-13,2.77Z"/><path class="cls-4" d="M1195.88,186.28c-.52,6.9-1.05,13.72-1.35,20.7-.3,6.07-.37,12.22-.52,18.3h-5.25c.37-2.4.67-4.73.82-7.13.38-4.5.53-9,.68-13.57.07-1.35.15-2.7.15-4.05.22-4.73.37-9.53.52-14.33Zm.83-13.58-.3,5.18h-5V172.7Z"/><path class="cls-4" d="M1222.73,191a30.65,30.65,0,0,0-9.45-2c-.37,0-4.12,0-6,1.42a4.18,4.18,0,0,0-1.35,1.88,5.69,5.69,0,0,0-.3,1.95c0,2.62,1.65,4.05,3.6,5.7l7.8,6.15a30.14,30.14,0,0,1,4.2,4,10.78,10.78,0,0,1,2.48,6.6,8.61,8.61,0,0,1-3.68,7c-2.85,2.25-6.22,2.55-9.75,2.55-3.37,0-5.4-.15-11-1.73l-.52-4.27a52.89,52.89,0,0,0,6.82,2.1,33.15,33.15,0,0,0,5.25.6c4.13,0,8.18-1.65,8.1-6.08,0-2.55-1.65-4.2-3.52-5.92l-7.58-5.93a37.37,37.37,0,0,1-4-3.6,10.86,10.86,0,0,1-3-7.12,7.38,7.38,0,0,1,3.3-6.23,15.34,15.34,0,0,1,9.07-2.55,45.55,45.55,0,0,1,8.78,1.13Z"/></g></g></svg>